<svg xmlns="http://www.w3.org/2000/svg" viewBox="0 0 24 24" id="akrapovic">
  <path fill="#F44336" d="m2.205 14.218 1.076 1.17c.391.445.872.44 1.437-.02l3.7-3.105A377.42 377.42 0 0 1 4.5 7.448c-.926-1.304-1.426-3.166-.366-4.45.685-.792 1.667-1.204 2.963-1.236 4.094.057 8.194.111 12.296.166-1.154 1.026-1.786 2.621-2.985 3.648-.585.536-1.3.778-2.123.723-1.115-.031-2.208-.039-3.3-.047-.471-.023-.74.094-.809.35-.046.124.085.342.416.653l6.116 7.673c.246.233.462.218.646-.047.238-1.275.477-2.527.715-3.778.053-.583.338-1.12.854-1.609L22.8 6.415c-.677 3.763-1.354 7.573-2.031 11.382-.189.985-.566 1.989-1.187 2.718-1.07 1.256-2.726 1.738-4.398.221-1.3-1.609-2.623-3.242-3.947-4.874a2647.81 2647.81 0 0 1-5.558 4.421c-.854.825-1.871 1.261-3.048 1.29-.753-.055-1.464-.719-1.428-1.375.116-2.178.772-4.766 1.002-5.98z"></path>
  <path d="M17.548 23c-.943 0-1.886-.412-2.74-1.199a.795.795 0 0 1-.079-.085l-3.639-4.571c-.838.683-1.567 1.281-2.208 1.806-4.291 3.519-4.74 3.887-6.624 3.935-1.275-.092-2.314-1.162-2.256-2.247.097-1.847.528-3.892.843-5.385.086-.407.161-.764.214-1.048a.749.749 0 0 1 1.294-.365c.216.238.401.454.564.645.265.309.565.658.683.707.23-.039 1.135-.834 2.184-1.754.414-.363.89-.781 1.442-1.257-.425-.514-.829-.991-1.207-1.438-2.715-3.204-4.508-5.32-2.203-8.158C5.26.89 6.087.907 14.022 1.065c1.718.035 3.784.076 6.281.11a.75.75 0 0 1 .492 1.306c-.518.468-.971.883-1.373 1.251-3.158 2.893-3.346 3.062-6.553 2.963-.46-.015-.995-.032-1.628-.04 1.473 1.881 2.61 3.351 3.493 4.492 1.02 1.319 1.78 2.301 2.26 2.879.087-.504.158-.944.221-1.334.512-3.169.608-3.323 3.427-5.514.576-.448 1.277-.992 2.135-1.686a.745.745 0 0 1 .853-.062.748.748 0 0 1 .357.776c-.465 2.63-.829 4.748-1.125 6.466-1.167 6.796-1.29 7.506-2.392 8.821-.756.902-1.721 1.435-2.717 1.498a1.983 1.983 0 0 1-.205.009zm-1.683-2.265c.603.542 1.202.805 1.793.761.748-.048 1.317-.551 1.664-.964.823-.981.928-1.506 2.063-8.112.219-1.274.475-2.768.783-4.527l-.604.472c-2.434 1.892-2.434 1.892-2.867 4.569-.099.61-.217 1.345-.383 2.248a.744.744 0 0 1-.12.289c-.137.2-.384.56-.872.573-.69.041-.857-.207-3.773-3.978a885.195 885.195 0 0 0-3.576-4.598c-.567-.558-.745-1.094-.53-1.593.214-.497.777-.763 1.537-.721a70.67 70.67 0 0 1 1.938.043c2.589.079 2.595.082 5.47-2.55-1.676-.027-3.13-.057-4.396-.082-7.677-.156-8.096-.11-9.022.98-1.445 1.779-.681 2.837 2.193 6.228.52.613 1.087 1.284 1.689 2.026a.75.75 0 0 1-.096 1.043c-.791.675-1.441 1.246-1.983 1.722-1.804 1.584-2.485 2.188-3.306 2.117-.497-.035-.855-.305-1.239-.712-.292 1.396-.644 3.174-.727 4.747-.013.23.354.637.794.67 1.256-.035 1.416-.136 5.636-3.596.787-.646 1.709-1.402 2.801-2.288a.755.755 0 0 1 .553-.164.755.755 0 0 1 .506.278l4.074 5.119z"></path>
</svg>
