<svg xmlns="http://www.w3.org/2000/svg" width="16" height="17" viewBox="0 0 16 17" fill="none">
    <path d="M1 1H3.5L4.5 4H14L13 10H5" stroke="white" strokeWidth="1.5" strokeLinecap="round" strokeLinejoin="round"/>
    <path d="M5 15C5 15.5523 5.44772 16 6 16C6.55228 16 7 15.5523 7 15C7 14.4477 6.55228 14 6 14C5.44772 14 5 14.4477 5 15Z" fill="white"/>
    <path d="M11 15C11 15.5523 11.4477 16 12 16C12.5523 16 13 15.5523 13 15C13 14.4477 12.5523 14 12 14C11.4477 14 11 14.4477 11 15Z" fill="white"/>
</svg>