<svg xmlns="http://www.w3.org/2000/svg" class="icon icon-tabler icon-tabler-ticket" width="24" height="24" viewBox="0 0 24 24" stroke-width="2" stroke="currentColor" fill="none" stroke-linecap="round" stroke-linejoin="round">
  <path stroke="none" d="M0 0h24v24H0z" fill="none"/>
  <path d="M15 5h2a2 2 0 0 1 2 2v2a2 2 0 0 0 0 4v2a2 2 0 0 1 -2 2h-2" />
  <path d="M9 19h-2a2 2 0 0 1 -2 -2v-2a2 2 0 0 0 0 -4v-2a2 2 0 0 1 2 -2h2" />
  <line x1="8" y1="12" x2="16" y2="12" />
  <line x1="12" y1="8" x2="12" y2="16" />
</svg>