<svg className="w-[35px] h-[35px] md:w-[50px] md:h-[50px]" viewBox="0 0 50 50" fill="none"
                            xmlns="http://www.w3.org/2000/svg">
                            <g clip-path="url(#a)" stroke="#FF6D42" stroke-width="3.473" stroke-linecap="round" stroke-linejoin="round">
                                <path
                                    d="M10.811 39.091c-1.775-1.775-.598-5.505-1.5-7.69-.939-2.255-4.377-4.089-4.377-6.5 0-2.413 3.438-4.246 4.376-6.502.903-2.182-.274-5.914 1.501-7.69 1.776-1.775 5.508-.598 7.69-1.5 2.266-.939 4.09-4.377 6.501-4.377 2.412 0 4.246 3.438 6.501 4.376 2.185.903 5.915-.274 7.69 1.501 1.776 1.776.598 5.506 1.502 7.69.937 2.266 4.376 4.09 4.376 6.501 0 2.412-3.439 4.246-4.377 6.501-.903 2.185.274 5.915-1.5 7.69-1.776 1.776-5.506.598-7.69 1.501-2.256.938-4.09 4.377-6.502 4.377s-4.245-3.439-6.5-4.377c-2.183-.903-5.915.275-7.69-1.5Z">
                                </path>
                                <path d="m17.281 26.444 4.632 4.631L32.718 20.27"></path>
                            </g>
                            <defs>
                                <clipPath id="a">
                                    <path fill="#fff" d="M.3.2h49.4v49.4H.3z"></path>
                                </clipPath>
                            </defs>
                        </svg>