<svg className="w-[35px] h-[35px] md:w-[50px] md:h-[50px]" viewBox="0 0 51 50" fill="none"
                            xmlns="http://www.w3.org/2000/svg">
                            <g clip-path="url(#a)">
                                <path
                                    d="m26.91 5.776 4.483 10.683a1.544 1.544 0 0 0 1.287.942l11.474.992a1.544 1.544 0 0 1 .876 2.715L36.325 28.7a1.559 1.559 0 0 0-.49 1.523l2.61 11.296a1.544 1.544 0 0 1-2.295 1.677l-9.86-5.982a1.53 1.53 0 0 0-1.59 0l-9.861 5.982a1.544 1.544 0 0 1-2.295-1.677l2.609-11.296a1.56 1.56 0 0 0-.49-1.523l-8.705-7.593a1.544 1.544 0 0 1 .876-2.715l11.474-.992a1.544 1.544 0 0 0 1.287-.942l4.483-10.683a1.544 1.544 0 0 1 2.833 0Z"
                                    stroke="#FF6D42" stroke-width="4.341" stroke-linecap="round" stroke-linejoin="round"></path>
                            </g>
                            <defs>
                                <clipPath id="a">
                                    <path fill="#fff" d="M.8.2h49.4v49.4H.8z"></path>
                                </clipPath>
                            </defs>
                        </svg>